<svg id="Слой_1" data-name="Слой 1" xmlns="http://www.w3.org/2000/svg" viewBox="0 0 26.5 31.96">
  <defs>
    <style>
      .cls-1 {
        fill: #e3cdb2;
      }
    </style>
  </defs>
  <title>Mic</title>
  <g>
    <path class="cls-1" d="M14.75,28.44l.22,0A13.24,13.24,0,0,0,26.75,15.25a1.25,1.25,0,0,0-2.5,0,10.75,10.75,0,0,1-21.5,0,1.25,1.25,0,0,0-2.5,0A13.24,13.24,0,0,0,12,28.41l.22,0v2.28a1.25,1.25,0,0,0,2.5,0Z" transform="translate(-0.25)"/>
    <path class="cls-1" d="M6.25,15.25a7.25,7.25,0,0,0,14.5,0v-8a7.25,7.25,0,0,0-14.5,0Zm2.5-8a4.75,4.75,0,0,1,9.5,0v8a4.75,4.75,0,0,1-9.5,0Z" transform="translate(-0.25)"/>
  </g>
</svg>
